{"accessors" : [{"bufferView" : 0, "byteOffset" : 0, "componentType" : 5123, "count" : 1476, "type" : "SCALAR", "max" : [1475], "min" : [0]}, {"bufferView" : 1, "byteOffset" : 0, "componentType" : 5126, "count" : 1476, "type" : "VEC3", "max" : [1.5, 18.5, 1.5], "min" : [-1.5, 0, -1.5], "name" : "POSITION"}, {"bufferView" : 1, "byteOffset" : 12, "componentType" : 5126, "count" : 1476, "type" : "VEC3", "max" : [1.0000044107437134, 0.39392101764678955, 1.0000044107437134], "min" : [-1.0000044107437134, -1.0000044107437134, -1.0000044107437134], "name" : "NORMAL"}, {"bufferView" : 1, "byteOffset" : 24, "componentType" : 5126, "count" : 1476, "type" : "VEC2", "max" : [3, 2.1213598251342773], "min" : [-15, -2.1213598251342773], "name" : "TEXCOORD_0"}, {"bufferView" : 0, "byteOffset" : 2952, "componentType" : 5123, "count" : 11532, "type" : "SCALAR", "max" : [11531], "min" : [0]}, {"bufferView" : 2, "byteOffset" : 0, "componentType" : 5126, "count" : 11532, "type" : "VEC3", "max" : [1.75, 1.7497930526733398, 1.75], "min" : [-1.75, -1.7497930526733398, -1.75], "name" : "POSITION"}, {"bufferView" : 2, "byteOffset" : 12, "componentType" : 5126, "count" : 11532, "type" : "VEC3", "max" : [1.0000044107437134, 0.999886155128479, 1.0000044107437134], "min" : [-1.0000044107437134, -0.999886155128479, -1.0000044107437134], "name" : "NORMAL"}, {"bufferView" : 2, "byteOffset" : 24, "componentType" : 5126, "count" : 11532, "type" : "VEC2", "max" : [2.4749197959899902, 4.9498395919799805], "min" : [-2.4749197959899902, -4.9498395919799805], "name" : "TEXCOORD_0"}, {"bufferView" : 0, "byteOffset" : 26016, "componentType" : 5123, "count" : 1476, "type" : "SCALAR", "max" : [1475], "min" : [0]}, {"bufferView" : 3, "byteOffset" : 0, "componentType" : 5126, "count" : 1476, "type" : "VEC3", "max" : [18.5, 1.5, 1.5], "min" : [0, -1.5, -1.5], "name" : "POSITION"}, {"bufferView" : 3, "byteOffset" : 12, "componentType" : 5126, "count" : 1476, "type" : "VEC3", "max" : [0.39392101764678955, 1.0000044107437134, 1.0000044107437134], "min" : [-1.0000044107437134, -1.0000044107437134, -1.0000044107437134], "name" : "NORMAL"}, {"bufferView" : 3, "byteOffset" : 24, "componentType" : 5126, "count" : 1476, "type" : "VEC2", "max" : [1.9039433002471924, 2.1213598251342773], "min" : [-15, -2.1213598251342773], "name" : "TEXCOORD_0"}, {"bufferView" : 0, "byteOffset" : 28968, "componentType" : 5123, "count" : 1476, "type" : "SCALAR", "max" : [1475], "min" : [0]}, {"bufferView" : 4, "byteOffset" : 0, "componentType" : 5126, "count" : 1476, "type" : "VEC3", "max" : [1.5, 1.5, 18.5], "min" : [-1.5, -1.5, 0], "name" : "POSITION"}, {"bufferView" : 4, "byteOffset" : 12, "componentType" : 5126, "count" : 1476, "type" : "VEC3", "max" : [1.0000044107437134, 1.0000044107437134, 0.39392101764678955], "min" : [-1.0000044107437134, -1.0000044107437134, -1.0000044107437134], "name" : "NORMAL"}, {"bufferView" : 4, "byteOffset" : 24, "componentType" : 5126, "count" : 1476, "type" : "VEC2", "max" : [3, 2.1213598251342773], "min" : [-15, -2.1213598251342773], "name" : "TEXCOORD_0"}], "asset" : {"generator" : "Aspose.3D 22.10", "version" : "2.0"}, "buffers" : [{"uri" : "data:application/octet-stream;base64,", "byteLength" : 542660}], "bufferViews" : [{"buffer" : 0, "byteOffset" : 0, "byteLength" : 31920, "target" : 34963}, {"buffer" : 0, "byteOffset" : 31924, "byteLength" : 47232, "byteStride" : 32, "target" : 34962}, {"buffer" : 0, "byteOffset" : 79160, "byteLength" : 369024, "byteStride" : 32, "target" : 34962}, {"buffer" : 0, "byteOffset" : 448188, "byteLength" : 47232, "byteStride" : 32, "target" : 34962}, {"buffer" : 0, "byteOffset" : 495424, "byteLength" : 47232, "byteStride" : 32, "target" : 34962}], "materials" : [{"name" : "ABS (White)", "pbrMetallicRoughness" : {"baseColorFactor" : [0, 0.8274509803921568, 0, 1], "metallicFactor" : 0, "roughnessFactor" : 0}, "emissiveFactor" : [0, 0, 0], "alphaMode" : "OPAQUE", "doubleSided" : false}, {"name" : "ABS (White)", "pbrMetallicRoughness" : {"baseColorFactor" : [0.9647058823529412, 0.9647058823529412, 0.9529411764705882, 1], "metallicFactor" : 0, "roughnessFactor" : 0}, "emissiveFactor" : [0, 0, 0], "alphaMode" : "OPAQUE", "doubleSided" : false}, {"name" : "ABS (White)", "pbrMetallicRoughness" : {"baseColorFactor" : [0.8313725490196079, 0, 0, 1], "metallicFactor" : 0, "roughnessFactor" : 0}, "emissiveFactor" : [0, 0, 0], "alphaMode" : "OPAQUE", "doubleSided" : false}, {"name" : "ABS (White)", "pbrMetallicRoughness" : {"baseColorFactor" : [0, 0.3333333333333333, 1, 1], "metallicFactor" : 0, "roughnessFactor" : 0}, "emissiveFactor" : [0, 0, 0], "alphaMode" : "OPAQUE", "doubleSided" : false}], "meshes" : [{"primitives" : [{"attributes" : {"POSITION" : 1, "NORMAL" : 2, "TEXCOORD_0" : 3}, "indices" : 0, "material" : 0, "mode" : 4}], "name" : "Body1"}, {"primitives" : [{"attributes" : {"POSITION" : 5, "NORMAL" : 6, "TEXCOORD_0" : 7}, "indices" : 4, "material" : 1, "mode" : 4}], "name" : "Body2"}, {"primitives" : [{"attributes" : {"POSITION" : 9, "NORMAL" : 10, "TEXCOORD_0" : 11}, "indices" : 8, "material" : 2, "mode" : 4}], "name" : "Body3"}, {"primitives" : [{"attributes" : {"POSITION" : 13, "NORMAL" : 14, "TEXCOORD_0" : 15}, "indices" : 12, "material" : 3, "mode" : 4}], "name" : "Body4"}], "nodes" : [{"matrix" : [10, 0, 0, 0, 0, 10, 0, 0, 0, 0, 10, 0, 0, 0, 0, 1], "mesh" : 0, "name" : "Body1"}, {"matrix" : [10, 0, 0, 0, 0, 10, 0, 0, 0, 0, 10, 0, 0, 0, 0, 1], "mesh" : 1, "name" : "Body2"}, {"matrix" : [10, 0, 0, 0, 0, 10, 0, 0, 0, 0, 10, 0, 0, 0, 0, 1], "mesh" : 2, "name" : "Body3"}, {"matrix" : [10, 0, 0, 0, 0, 10, 0, 0, 0, 0, 10, 0, 0, 0, 0, 1], "mesh" : 3, "name" : "Body4"}, {"children" : [0, 1, 2, 3], "name" : "3D_Coordinate_System v1"}], "scene" : 0, "scenes" : [{"nodes" : [4]}]}